<?xml version="1.0" encoding="utf-8"?>
<!-- Generator: Adobe Illustrator 16.0.0, SVG Export Plug-In . SVG Version: 6.00 Build 0)  -->
<!DOCTYPE svg PUBLIC "-//W3C//DTD SVG 1.1//EN" "http://www.w3.org/Graphics/SVG/1.1/DTD/svg11.dtd">
<svg version="1.1" id="Capa_1" xmlns="http://www.w3.org/2000/svg" xmlns:xlink="http://www.w3.org/1999/xlink" x="0px" y="0px"
	 width="960px" height="560px" viewBox="0 0 960 560" xml:space="preserve">
<g>
	<path fill-rule="evenodd" clip-rule="evenodd" fill="rgba(255,255,255,0)" d="M732.147,158.747c-0.983-0.896-2.075-0.93-3.237-0.398
		c-1.4,1.383-1.332,3.272-1.834,4.99c-2.747,9.397-5.133,19.059-9.802,27.628c-8.824,16.193-21.086,29.893-33.783,43.154
		c-22.3,23.289-46.448,44.709-68.702,68.051c-12.819,12.653-25.801,25.136-38.186,38.228c-7.423,7.848-14.977,15.602-22.756,23.082
		c-11.872,11.415-23.373,23.198-35.094,34.76c-12.833,12.66-25.601,25.383-38.707,37.761c-2.075,1.959-4.17,4.199-7.366,1.833
		c-8.432-6.853-15.733-14.919-23.519-22.457c-17.243-16.694-33.803-34.082-50.616-51.212
		c-16.483-16.793-33.179-33.387-49.411-50.419c-18.042-18.93-36.337-37.6-55.432-55.45c-18.108-16.93-37.289-32.726-51.421-53.522
		c-8.98-13.217-16.262-27.003-18.574-43.02c-0.329-2.28-0.111-4.715-1.944-6.539c-0.239-0.107-0.474-0.168-0.705-0.215
		c-0.013,0.047-0.021,0.096-0.036,0.143c0.048,1.285-0.74,2.606-2.398,2.606c-0.024,0-0.045-0.006-0.069-0.007
		c0,93.195,0.057,186.392-0.15,279.588c-0.012,5.33,1.048,6.38,6.376,6.374c167.047-0.181,334.094-0.181,501.141,0
		c5.329,0.006,6.388-1.044,6.376-6.374C732.09,344.469,732.147,251.608,732.147,158.747z"/>
	<path fill-rule="evenodd" clip-rule="evenodd" fill="#F100DD" d="M474.721,426.237c0.089-52.975,0.063-105.951,0.045-158.926
		c0-3.355,0.13-6.724-0.549-10.06c-0.699-3.867-3.542-5.437-6.872-6.461c-14.939-4.601-29.272-10.933-44.246-15.457
		c-15.363-5.397-31.039-9.902-45.864-16.773c-16.133-7.479-30.299-17.334-42.021-31.002c-4.722-5.506-7.177-12-10.342-18.132
		c-0.193,0.045-0.397,0.074-0.622,0.074c-1.308,0-2.076-0.825-2.322-1.803c-0.077-0.184-0.14-0.374-0.174-0.571
		c-0.446-0.36-0.486-0.923-0.837-1.437c-0.205-0.457-0.322-0.889-0.567-1.484c-0.009-0.03-0.026-0.058-0.035-0.088
		c-0.22-0.523-0.563-0.993-0.713-1.512c-0.21-0.605-0.508-1.214-0.609-1.889c0.009-0.326-0.241-0.653-0.267-1.004
		c-0.208-0.572-0.553-1.205-0.489-1.864c-0.116-0.953,0.247-1.963,1.083-2.486c0.235-0.347,0.552-0.638,0.98-0.807
		c0.058-4.029-0.29-8.077,0.837-12.082c6.375-22.652,20.734-38.858,40.61-50.673c29.775-17.701,62.153-26.154,96.602-27.615
		c5.437-0.229,11.568,0.35,15.43-5.123c2-16.229,0.505-32.533,0.834-48.803c0.048-2.328-0.223-4.663-1.578-6.704
		c-5.704-3.099-12.146,0.467-17.914-1.999h-7.782c-7.816,1.859-15.865,1.006-23.745,2.021c-26.775,3.453-52.914,9.479-78.422,18.488
		c-37.876,13.375-72.732,31.558-98.985,62.86c-14.139,16.858-25.626,35.351-26.06,58.354c0.522,0.354,0.817,0.91,0.939,1.509
		c0.269,0.632,0.296,1.374,0.067,2.022c-0.004,0.1-0.001,0.2-0.016,0.299c0.06,0.329,0.064,0.669,0.008,0.999
		c0.034,0.265,0.043,0.533,0.004,0.798c0.048,0.295,0.048,0.6,0.003,0.896c0.024,0.236,0.028,0.473-0.014,0.708
		c0.058,0.338,0.058,0.688-0.006,1.026c0.04,0.241,0.057,0.487,0.034,0.732c0.02,0.233,0.021,0.468-0.017,0.7
		c0.043,0.291,0.047,0.589-0.001,0.88c0.055,0.389,0.033,0.79-0.073,1.167c0.111,0.227,0.23,0.453,0.377,0.676
		c0.916,24.873,13.304,44.398,28.815,62.608c10.326,12.121,21.843,22.941,33.631,33.601c16.089,14.549,31.664,29.671,46.665,45.375
		c11.294,11.823,23.015,23.239,34.421,34.957c15.484,15.905,30.814,31.96,46.278,47.884c9.272,9.549,18.487,19.167,28.064,28.402
		c10.79,10.407,20.982,21.455,32.67,30.916C475.848,435.659,474.713,430.745,474.721,426.237z"/>
	<path fill-rule="evenodd" clip-rule="evenodd" fill="#3251FB" d="M472.25,60.811c0.049-19.207,0.097-38.413,0.146-57.619
		c0.281-0.704,0.757-1.242,1.4-1.636c7.263,0,14.526,0,21.789,0c14.565,1.811,29.323,1.383,43.828,4.028
		c33.217,6.054,65.533,14.665,96.294,29.167c18.215,8.589,35.327,18.538,50.457,31.667c18.851,16.36,33.761,35.6,40.748,60.113
		c0.735,2.583,1.105,5.062-0.494,7.452c-2.706,2.087-5.434,0.909-8.113-0.018c-21.048-7.291-42.086-14.615-63.058-22.125
		c-23.168-8.297-46.534-16.039-69.563-24.725c-2.318-0.874-4.583-0.538-6.895-0.565c-11.039-4.22-21.648-9.412-33.093-12.764
		c-21.682-6.347-43.809-9.3-66.238-10.735C476.936,62.89,474.242,62.866,472.25,60.811z"/>
	<path fill-rule="evenodd" clip-rule="evenodd" fill="#FFFFFF" d="M728.837,145.086c-1.296-2.918,0.83-9.94-2.729-11.328
		c-1.77-11.61-6.383-21.973-12.468-32.036c-18.741-30.99-47.027-50.175-78.869-65.126C591.944,16.489,547.26,6.761,500.337,3.111
		c-0.268-0.021-0.462-0.174-1.024-0.424c-0.226-0.1-0.536-0.126-0.813-0.344c-0.437-0.344-1.362-0.722-2.915-0.788
		c77.038,0,154.077,0.052,231.116-0.129"/>
	<path fill-rule="evenodd" clip-rule="evenodd" fill="#FEFEFE" d="M224.47,1.45c-4.635-0.011-6.085,0.764-6.058,5.842
		c0.244,45.2,0.147,90.401,0.145,135.602c0.066-0.004,0.125-0.019,0.193-0.019c1.411,0,2.195,0.959,2.371,2.036
		c0.007,0.02,0.017,0.039,0.024,0.06c0.106-0.083,0.211-0.175,0.316-0.283c1.067-22.292,11.873-40.656,25.091-57.329
		c14.061-17.735,32.139-31.188,52.006-42.193c37.795-20.933,78.506-32.636,120.958-39.23c9.273-1.441,18.913-0.657,27.822-4.379
		C373.049,1.556,298.759,1.601,224.47,1.45z"/>
	<path fill-rule="evenodd" clip-rule="evenodd" fill="#FBCEF7" d="M221.077,144.694c0.013,0.051,0.009,0.105,0.018,0.157
		c0.243,0.617,0.26,1.332,0.04,1.958c-0.004,0.1-0.002,0.201-0.016,0.3c0.06,0.329,0.064,0.669,0.008,0.999
		c0.034,0.265,0.043,0.533,0.004,0.797c0.048,0.294,0.048,0.597,0.004,0.892c0.024,0.237,0.028,0.476-0.015,0.712
		c0.058,0.338,0.058,0.688-0.006,1.026c0.04,0.241,0.056,0.486,0.034,0.73c0.02,0.234,0.021,0.47-0.017,0.701
		c0.043,0.293,0.047,0.593-0.002,0.886c0.06,0.421,0.033,0.857-0.097,1.261c0.009,0.19,0.006,0.38-0.022,0.568
		c0.142,0.003,0.284,0.006,0.426,0.009c0.01-3.667,0.02-7.336,0.029-11.004C221.334,144.69,221.205,144.692,221.077,144.694z"/>
	<path fill-rule="evenodd" clip-rule="evenodd" fill="#F554E8" d="M473.796,1.556c-0.467,0.546-0.933,1.09-1.4,1.636
		c-5.7-1.17-11.808,1.971-17.276-1.636C461.345,1.556,467.57,1.556,473.796,1.556z"/>
	<path fill-rule="evenodd" clip-rule="evenodd" fill="#0420BC" d="M728.389,144.415c0.418,4.75,0.45,9.503,0.416,14.24
		c-1.482,14.703-6.505,28.034-14.185,40.466c-13.172,21.327-31.748,37.925-49.112,55.572c-15.846,16.104-33.065,30.82-48.146,47.699
		c-0.465,0.521-1.36,0.654-2.055,0.969c-3.857,1.956-7.581,0.691-11.244-0.576c-41.782-14.457-83.395-29.399-125.257-43.623
		c-2.498-0.848-4.796-1.921-6.461-4.054c-16.637-6.152-33.273-12.305-49.911-18.456c3.738-3.706,8.223-2.169,12.467-1.631
		c39.771,5.046,79.164,4.063,117.357-9.268c23.127-8.074,45.204-18.865,60.761-38.638c8.228-10.458,14.831-22.126,14.491-36.763
		c-0.321-13.832-6.539-24.737-13.795-35.521c-7.432-11.043-18.932-17.43-29.182-25.239c-1.823-1.388-4.197-2.148-5.005-4.625
		c7.49-2.658,13.465,2.508,19.659,4.629c41.417,14.177,82.563,29.149,123.812,43.819c0.928,0.329,1.525,0.103,3.08,0.171
		C728.291,139.917,728.162,141.963,728.389,144.415z"/>
	<path fill-rule="evenodd" clip-rule="evenodd" fill="#3251FB" d="M472.373,255.277c21.145,7.219,42.238,14.588,63.445,21.619
		c26.533,8.798,52.384,19.632,79.517,26.634c-22.533,23.061-44.942,46.243-67.642,69.137c-15.335,15.466-31.065,30.542-46.648,45.76
		c-7.184,7.016-14.556,13.842-21.604,20.988c-2.791,2.83-4.95,4.573-7.464,0.018c0.087-51.024,0.17-102.049,0.266-153.075
		C472.262,275.998,472.328,265.638,472.373,255.277z"/>
	<path fill-rule="evenodd" clip-rule="evenodd" fill="#FDFDFD" d="M321.504,166.749c-0.078-0.186-0.141-0.377-0.176-0.577
		c-0.029-0.023-0.062-0.042-0.089-0.065c4.798,16.432,16.127,28.101,29.261,38.266c21.198,16.405,46.536,23.619,71.538,31.499
		c3.348,0.083,6.747-0.176,10.037,0.306c46.123,6.757,91.382,3.944,134.539-14.612c21.74-9.345,41.145-21.729,54.143-43.573
		c15.035-25.266,8.123-47.068-6.373-66.213c-9.201-12.154-21.869-20.471-35.25-27.591c-11.445-5.734-23.215-10.568-35.516-14.276
		c-23.445-7.072-47.559-8.864-71.792-10.051c-6.972,0.483-13.959,0.806-20.913,1.479c-36.322,3.509-70.969,12.188-100.759,34.537
		c-19.851,14.895-33.139,33.647-32.239,59.829"/>
	<path fill-rule="evenodd" clip-rule="evenodd" fill="#F100DD" d="M320.35,164.217c-0.008-0.026-0.217-0.087-0.225-0.113
		c-0.416-0.41-0.558-0.787-0.604-1.375c-0.453-0.508-0.766-1.295-0.729-1.979c-0.155-0.314-0.163-0.604-0.188-0.958
		c-0.272-0.37-0.323-0.898-0.373-1.361c-0.3,2.478-0.876,5.049,2.222,6.371C320.397,164.611,320.364,164.415,320.35,164.217z"/>
</g>
</svg>
